<svg width="35" height="34" viewBox="0 0 35 34" fill="none" xmlns="http://www.w3.org/2000/svg">
<g id="streamline:entertainment-control-button-play-button-television-buttons-movies-play-tv-video-controls">
<path id="Vector" d="M3.75 29.9929C3.75898 30.4988 3.91054 30.9927 4.18822 31.4209C4.46589 31.8491 4.85906 32.1951 5.325 32.4214C5.79027 32.6768 6.3156 32.811 6.85 32.811C7.3844 32.811 7.90973 32.6768 8.375 32.4214L30 19.4286C30.4705 19.2084 30.8675 18.8636 31.1454 18.434C31.4232 18.0044 31.5706 17.5074 31.5706 17C31.5706 16.4926 31.4232 15.9956 31.1454 15.566C30.8675 15.1364 30.4705 14.7916 30 14.5714L8.375 1.67572C7.90973 1.42034 7.3844 1.28613 6.85 1.28613C6.3156 1.28613 5.79027 1.42034 5.325 1.67572C4.85906 1.90203 4.46589 2.24808 4.18822 2.67624C3.91054 3.1044 3.75898 3.59831 3.75 4.10429V29.9929Z" stroke="#D21312" stroke-linecap="round" stroke-linejoin="round"/>
</g>
</svg>
